<?xml version="1.0" encoding="UTF-8" standalone="no"?>
<!-- Created with Inkscape (http://www.inkscape.org/) -->

<svg
   xmlns:dc="http://purl.org/dc/elements/1.1/"
   xmlns:cc="http://creativecommons.org/ns#"
   xmlns:rdf="http://www.w3.org/1999/02/22-rdf-syntax-ns#"
   xmlns:svg="http://www.w3.org/2000/svg"
   xmlns="http://www.w3.org/2000/svg"
   xmlns:sodipodi="http://sodipodi.sourceforge.net/DTD/sodipodi-0.dtd"
   xmlns:inkscape="http://www.inkscape.org/namespaces/inkscape"
   version="1.1"
   id="svg3624"
   xml:space="preserve"
   width="816"
   height="816"
   viewBox="0 0 816 816"
   sodipodi:docname="hand-gun-publicdomainvectors.svg"
   inkscape:version="0.92.4 (5da689c313, 2019-01-14)"><metadata
     id="metadata3630"><rdf:RDF><cc:Work
         rdf:about=""><dc:format>image/svg+xml</dc:format><dc:type
           rdf:resource="http://purl.org/dc/dcmitype/StillImage" /><dc:title></dc:title></cc:Work></rdf:RDF></metadata><defs
     id="defs3628"><clipPath
       clipPathUnits="userSpaceOnUse"
       id="clipPath3640"><path
         d="M 0,612 H 612 V 0 H 0 Z"
         id="path3638"
         inkscape:connector-curvature="0" /></clipPath></defs><sodipodi:namedview
     pagecolor="#ffffff"
     bordercolor="#666666"
     borderopacity="1"
     objecttolerance="10"
     gridtolerance="10"
     guidetolerance="10"
     inkscape:pageopacity="0"
     inkscape:pageshadow="2"
     inkscape:window-width="724"
     inkscape:window-height="480"
     id="namedview3626"
     showgrid="false"
     inkscape:zoom="0.28921569"
     inkscape:cx="408"
     inkscape:cy="408"
     inkscape:window-x="0"
     inkscape:window-y="0"
     inkscape:window-maximized="0"
     inkscape:current-layer="g3632" /><g
     id="g3632"
     inkscape:groupmode="layer"
     inkscape:label="hand-gun-publicdomainvectors"
     transform="matrix(1.3333333,0,0,-1.3333333,0,816)"><g
       id="g3634"><g
         id="g3636"
         clip-path="url(#clipPath3640)"><path
           d="m 581.958,390.083 -90.707,-0.713 -0.361,16.987 c 4.614,5.25 18.153,10.748 35.208,10.978 l 56.888,0.767 c -0.225,-9.087 -0.574,-18.639 -1.028,-28.019 m -97.263,-0.767 -1.553,-7.436 -94.888,-1.279 -0.312,22.995 98.579,1.33 0.333,-15.592 z m -120.277,-37.68 c -0.017,0.052 -0.025,0.104 -0.04,0.159 l -0.134,0.46 -0.315,0.364 c -10.011,11.541 -21.725,19.78 -27.664,21.67 l -0.355,0.114 -0.374,-0.01 c -4.258,-0.119 -16.057,-0.213 -26.606,-0.278 -0.744,0.036 -1.51,0.064 -2.209,0.117 l -0.009,-0.13 c -9.122,-0.053 -16.788,-0.081 -16.932,-0.081 l -0.433,-0.003 -0.401,-0.165 c -9.847,-4.078 -17.955,-18.188 -18.072,-31.454 -0.1,-11.069 5.163,-20.071 14.924,-25.769 l -33.204,-0.622 21.673,60.349 105.04,0.058 c -4.538,-4.32 -12.093,-13.016 -14.889,-24.779 m -56.756,13.74 c 2.162,-0.121 4.396,-0.192 6.763,-0.248 17.565,-0.409 30.374,-1.824 35.258,-16.377 3.32,-9.897 -11.359,-16.136 -17.826,-18.359 -4.026,-1.382 -21.117,-0.851 -31.06,0.79 -3.614,11.65 1.478,25.709 6.865,34.194 m 50.882,-32.835 c -4.616,-8.172 -13.529,-12.24 -16.657,-13.153 l -32.093,-0.433 c -1.174,0.837 -2.25,1.717 -3.198,2.655 5.466,-0.563 11.271,-0.796 16.27,-0.729 5.358,0.072 9.785,0.487 11.849,1.194 18.636,6.407 27.347,17.424 23.303,29.472 -0.213,0.637 -0.476,1.197 -0.714,1.798 1.001,-1.044 1.996,-2.118 2.982,-3.242 1.781,-6.45 1.196,-12.355 -1.742,-17.562 m -74.305,-50.719 -1.116,-1.485 c -5.352,-7.16 -15.31,-20.481 -28.328,-25.016 -5.975,-2.082 -29.698,-2.725 -44.098,-1.628 4.792,0.233 8.846,0.703 10.377,1.606 1.459,0.861 2.326,2.595 2.652,5.3 0.737,6.136 -1.531,18.464 -4.55,21.401 -2.114,2.059 -6.998,2.051 -15.508,1.946 -1.319,-0.021 -2.647,-0.045 -3.942,-0.049 2.349,1.506 4.753,2.541 6.91,2.869 0.833,-0.32 1.654,-0.642 2.521,-0.956 14.351,-5.163 31.288,-0.934 39.404,9.833 2.204,2.921 3.542,6.105 4.035,9.368 l 29.904,0.564 -0.18,-0.214 c 6.216,-5.226 5.732,-18.495 1.919,-23.539 m -15.105,-47.821 c -4.369,-8.315 -22.823,-23.23 -30.855,-24.934 -6.002,-1.275 -19.409,-1.487 -30.183,-1.655 -2.709,-0.047 -5.186,-0.088 -7.403,-0.138 3.639,0.585 6.465,1.145 7.407,1.505 1.518,0.584 2.125,2.208 2.45,3.383 1.346,4.878 1.149,17.734 -3.196,23.265 -1.923,2.446 -6.291,3.984 -12.979,4.578 -2.251,0.203 -4.93,0.286 -7.642,0.239 6.21,3.694 12.184,5.84 14.455,5.798 6.051,-1.223 18.003,-1.797 29.578,-1.64 11.334,0.153 22.288,1 26.922,2.615 3.749,1.305 7.252,3.193 10.498,5.399 1.892,-6.435 3.116,-14.286 0.948,-18.415 m -32.323,-53.61 c -10.649,-4.624 -24.384,-6.638 -35.443,-7.362 1.742,0.738 3.201,1.609 4.165,2.653 2.958,3.19 3.459,13.605 -1.542,19.444 -1.626,1.899 -4.521,2.828 -7.812,3.195 0.035,0.002 0.071,0 0.106,0.004 2.925,0.15 7.108,0.217 11.951,0.29 11.733,0.189 25.033,0.397 31.869,1.849 2.154,0.456 4.743,1.531 7.523,3.01 0.389,-7.429 -0.815,-18.743 -10.817,-23.083 m -153.171,-2.272 19.871,52.765 c 2.923,2.064 5.795,4.345 8.601,6.856 -6.248,-16.552 -18.176,-49.162 -16.233,-51.948 2.163,-3.102 57.492,-6.572 76.553,-7.678 0.339,-1.9 0.727,-3.536 1.036,-4.606 0.259,-0.9 0.539,-1.702 0.829,-2.454 -20.274,0.396 -56.273,3.326 -90.657,7.065 M 46.219,147.574 c -14.295,3.768 -24.549,11.712 -29.656,22.971 -3.935,8.673 -1.173,41.777 6.09,64.161 5.969,-6.325 13.884,-11.445 23.038,-14.444 6.262,-2.051 12.643,-3.009 19.039,-2.923 8.989,0.12 17.993,2.345 26.719,6.473 l -20.027,-53.185 5.618,-0.629 c 11.206,-1.257 33.931,-3.691 56.504,-5.477 -28.26,-16.82 -62.021,-23.617 -87.325,-16.947 m 148.76,36.955 c 0.299,-3.252 2.136,-5.779 5.163,-7.266 -3.964,-1.831 -11.478,-2.964 -17.545,-3.462 -1.626,3.739 -2.825,12.973 -1.85,15.412 0.59,0.66 2.229,2.324 4.27,4.355 4.956,0.647 10.221,0.832 13.337,-0.052 -2.269,-2.182 -3.681,-5.677 -3.375,-8.987 m 7.372,-5.8 c -3.089,1.054 -4.919,3.134 -5.184,6.004 -0.268,2.913 1.176,6.079 3.303,7.698 0.057,-0.057 0.132,-0.106 0.182,-0.162 3.877,-4.531 2.771,-12.202 1.699,-13.54 m -5.638,43.854 c 0.064,-2.66 1.098,-7.013 6.291,-10.466 -5.282,-0.954 -15.094,-2.331 -21.947,-2.774 -4.907,1.865 -9.429,5.236 -10.589,11.375 -0.664,3.519 2.016,7.416 4.384,10.065 1.472,1.652 3.142,3.196 4.905,4.626 6.336,0.796 17.148,0.735 22.048,-1.302 -2.818,-2.508 -5.203,-6.961 -5.092,-11.524 m 9.454,-9.743 c -4.641,2.34 -7.157,5.672 -7.256,9.796 -0.105,4.305 2.441,8.315 4.84,10.203 0.039,-0.046 0.109,-0.084 0.145,-0.129 3.499,-4.451 3.455,-17.118 2.271,-19.87 m 4.962,55.174 c 0.228,-4.13 2.328,-7.424 5.821,-9.406 -4.172,-0.645 -13.854,-0.814 -23.313,-0.6 -3.538,2.101 -6.032,5.173 -5.565,9.676 0.429,4.15 3.029,8.449 6.427,11.93 2.715,-0.168 5.916,-0.118 9.238,-0.065 3.839,0.055 9.356,0.144 11.576,-0.395 -2.648,-2.562 -4.414,-6.968 -4.184,-11.14 m 8.113,-8.076 c -4.789,2.012 -5.793,5.927 -5.917,8.199 -0.196,3.545 1.325,7.367 3.528,9.461 1.714,-3.883 3.35,-14.32 2.389,-17.66 m -188.77,46.13 c 18.098,17.552 40.626,39.399 60.35,49.808 0.247,0.13 0.52,0.251 0.773,0.379 0.928,-0.22 1.957,-0.203 3.123,0.242 l -0.392,1.028 c 24.153,10.406 72.763,11.505 93.86,8.801 5.802,-2.003 11.085,-4.735 15.825,-7.839 2.302,-2.706 4.521,-6.045 7.113,-10 3.02,-4.609 6.391,-9.741 10.774,-15.088 -0.1,-0.045 -0.199,-0.079 -0.299,-0.128 -5.567,-2.81 -10.028,-10.155 -9.946,-16.371 0.035,-2.486 1.201,-4.829 3.469,-6.971 5.478,-5.173 16.902,-8.303 22.439,-8.23 0.133,0.002 0.266,0.005 0.391,0.01 1.8,0.08 3.357,0.44 4.729,1.004 -0.348,-0.645 -0.737,-1.238 -1.14,-1.775 -5.085,-6.742 -17.47,-11.149 -29.409,-6.85 -20.808,7.483 -30.67,17.289 -34.037,21.288 -0.142,0.281 -0.286,0.588 -0.419,0.934 -0.188,0.384 -0.332,0.8 -0.446,1.244 -0.152,0.451 -0.274,0.932 -0.334,1.434 -0.115,0.516 -0.132,1.037 -0.144,1.587 -0.044,0.563 0.071,1.1 0.115,1.687 0.207,1.124 0.593,2.269 1.142,3.296 0.574,1.005 1.262,1.903 1.965,2.588 0.357,0.316 0.69,0.645 1.025,0.858 0.33,0.245 0.621,0.424 0.88,0.546 0.527,0.273 0.891,0.321 0.88,0.34 -0.002,-0.022 -0.336,0.076 -0.955,0.031 -0.658,-0.019 -1.514,-0.233 -2.559,-0.609 -1.026,-0.403 -2.171,-1.036 -3.319,-1.909 -1.121,-0.896 -2.201,-2.06 -3.103,-3.416 -0.389,-0.696 -0.854,-1.405 -1.135,-2.161 -0.318,-0.752 -0.611,-1.515 -0.776,-2.279 -0.075,-0.245 -0.122,-0.485 -0.176,-0.729 -12.704,-4.221 -28.117,-6.133 -30.262,-2.393 l -5.566,-3.191 c -0.049,0.011 -0.099,0.022 -0.149,0.033 -0.578,0.074 -1.164,0.416 -1.799,0.622 -0.617,0.3 -1.244,0.655 -1.887,1.005 -0.619,0.425 -1.238,0.853 -1.849,1.271 -0.586,0.485 -1.165,0.963 -1.723,1.423 -1.126,0.94 -2.062,1.97 -2.941,2.794 -1.609,1.802 -2.684,3 -2.684,3 0,0 0.617,-1.505 1.543,-3.763 0.558,-1.088 1.122,-2.429 1.92,-3.78 0.406,-0.681 0.827,-1.383 1.254,-2.096 0.501,-0.694 1.009,-1.396 1.518,-2.099 0.584,-0.666 1.174,-1.347 1.808,-1.995 0.715,-0.59 1.326,-1.265 2.143,-1.756 0.054,-0.035 0.106,-0.067 0.161,-0.101 -0.006,-0.011 -0.009,-0.019 -0.015,-0.03 -0.109,-0.19 -0.165,-0.412 -0.317,-0.648 -0.183,-0.239 -0.378,-0.49 -0.579,-0.755 -0.433,-0.526 -1.034,-1.103 -1.726,-1.66 -0.369,-0.273 -0.745,-0.556 -1.131,-0.845 -0.408,-0.266 -0.857,-0.506 -1.304,-0.775 -0.878,-0.563 -1.918,-0.943 -2.942,-1.415 -1.067,-0.355 -2.151,-0.803 -3.298,-1.029 -1.133,-0.325 -2.295,-0.483 -3.457,-0.642 -1.16,-0.18 -2.311,-0.135 -3.447,-0.214 -1.112,0.087 -2.221,0.1 -3.256,0.239 -1.019,0.191 -2.018,0.319 -2.914,0.538 -0.89,0.262 -1.705,0.504 -2.426,0.72 -0.731,0.218 -1.308,0.54 -1.821,0.742 -1.012,0.439 -1.59,0.692 -1.59,0.692 0,0 0.511,-0.37 1.404,-1.022 0.458,-0.308 0.979,-0.765 1.657,-1.146 0.686,-0.381 1.46,-0.811 2.303,-1.278 0.869,-0.426 1.859,-0.789 2.898,-1.227 1.056,-0.388 2.211,-0.664 3.408,-1.018 1.213,-0.19 2.481,-0.51 3.788,-0.601 1.312,-0.114 2.66,-0.222 4.01,-0.146 1.363,-0.022 2.707,0.195 4.059,0.343 1.323,0.271 2.665,0.468 3.92,0.907 0.631,0.207 1.26,0.389 1.867,0.617 0.342,0.15 0.672,0.297 1.006,0.445 -0.235,-4.715 -1.006,-12.599 -3.428,-20.89 -1.069,-2.992 -2.158,-5.958 -3.244,-8.809 -1.478,-3.261 -3.274,-6.434 -5.468,-9.341 -29.737,-39.388 -60.083,-34.75 -71.752,-30.923 -16.442,5.384 -28.51,19.23 -28.694,32.919 -0.253,18.71 -0.645,29.271 -0.829,33.425 3.528,3.307 7.447,7.108 11.567,11.103 m 60.705,59.676 -0.391,1.02 c 1.257,0.48 2.426,0.414 3.353,0.164 -1.014,-0.381 -2.001,-0.777 -2.962,-1.184 m 13.489,17.939 c 5.067,0.792 10.517,1.646 14.906,4.136 1.484,-3.534 2.39,-8.763 2.09,-14.257 -9.845,-1.466 -19.169,-3.56 -26.977,-6.427 -3.094,2.741 -6.321,5.374 -9.616,7.133 3.484,6.539 10.053,7.923 19.597,9.415 m 111.472,-65.642 c 0.151,0 0.29,-0.007 0.446,-0.005 3.464,0.047 7.692,0.736 10.42,3.375 1.1,1.062 1.835,2.38 2.281,3.886 3.541,-3.487 7.618,-7.002 12.435,-10.463 1.19,-1.788 1.851,-3.474 2.143,-5.045 -0.169,-0.499 -0.376,-0.979 -0.678,-1.4 -1.012,-1.403 -2.837,-2.171 -5.425,-2.285 -4.006,-0.173 -14.747,2.422 -19.619,7.022 -1.371,1.294 -2.073,2.582 -2.09,3.832 -0.005,0.35 0.048,0.718 0.087,1.083 m 8.787,11.82 c 0.808,-0.903 1.658,-1.81 2.536,-2.719 -0.238,-1.695 -0.889,-3.094 -1.982,-4.151 -2.229,-2.153 -5.879,-2.723 -8.919,-2.758 1.097,3.735 3.885,7.53 7.021,9.113 0.465,0.233 0.909,0.4 1.344,0.515 m 158.927,50.955 -112.678,-0.066 -22.005,-61.265 c -0.229,0.352 -0.453,0.705 -0.706,1.055 l -0.427,0.595 -0.599,0.424 c -4.773,3.379 -8.797,6.842 -12.261,10.29 3.796,10.188 13.313,35.76 21.043,56.823 -45.052,7.844 -75.966,-5.054 -88.632,-12.275 -12.655,0.196 -27.433,-0.412 -41.504,-2.223 0.213,6.135 -0.892,12.114 -2.941,16.341 1.727,1.708 3.128,3.874 4.026,6.7 0.294,0.924 0.561,1.908 0.835,2.875 l 255.542,3.447 z m -233.383,79.825 133.299,1.799 c 0.04,-4.519 0.939,-9.774 4.782,-10.681 1.488,-0.351 8.064,-0.409 18.835,-0.264 10.194,0.136 24.144,0.458 41.082,0.892 6.646,0.17 12.394,0.308 12.876,0.308 1.416,-0.172 2.675,0.261 3.674,1.231 1.658,1.62 2.431,4.676 2.384,9.641 l 214.682,2.896 c 1.177,-6.88 1.418,-23.974 1.006,-43.962 l -57.052,-0.769 c -19.21,-0.259 -33.049,-6.449 -38.384,-12.393 l -358.486,-4.835 c 0.96,3.918 1.845,8.068 2.746,12.396 3.578,17.153 7.619,36.522 18.556,43.741 m 212.527,2.866 c 0.044,-5.629 -1.075,-6.445 -1.138,-6.446 -0.421,0.05 -1.941,0.017 -13.502,-0.278 -16.645,-0.428 -55.621,-1.426 -58.797,-0.744 -0.686,0.163 -1.321,2.755 -1.37,6.46 z m 227.377,11.845 -1.678,2.194 -6.692,-0.09 c -9.046,5.814 -24.608,6.496 -25.415,6.527 l -1.158,0.045 0.093,-6.929 -378.273,-5.102 c -2.676,7.209 -3.509,7.635 -3.856,7.803 l -1.043,0.033 c -0.954,-0.366 -2.542,-3.064 -4.711,-7.966 l -20.209,-0.273 -1.216,-0.682 c -8.022,-4.494 -13.22,-12.351 -16.939,-21.572 -6.855,2.266 -16.707,6.215 -23.137,12.747 l -1.156,1.177 -0.642,-1.522 c -4.885,-11.638 7.26,-28.967 17.731,-38.22 -0.31,-1.468 -0.618,-2.929 -0.919,-4.378 -1.429,-6.85 -2.779,-13.319 -4.458,-18.595 -1.172,-3.679 -5.082,-4.655 -13.727,-6.006 -10.858,-1.696 -25.728,-4.02 -30.307,-22.287 l -1.583,-6.316 6.49,-0.502 c 1.279,-0.098 3.351,-1.271 6.149,-3.454 C 63.688,350.515 41.969,329.47 24.35,312.381 19.671,307.845 15.255,303.563 11.427,300.015 l -1.516,-1.406 0.113,-2.064 c 0.007,-0.106 0.589,-10.81 0.917,-35.125 0.085,-6.344 2.018,-12.591 5.372,-18.305 -8.426,-21.746 -13.845,-62.79 -7.759,-76.206 6.236,-13.745 18.485,-23.374 35.424,-27.838 7.563,-1.996 15.797,-2.896 24.4,-2.78 26.161,0.354 55.664,10.137 79.667,27.181 11.676,-0.751 22.601,-1.213 31.013,-1.099 6.715,0.09 11.829,0.546 14.45,1.508 0.076,0 0.145,-0.004 0.223,0 13.4,0.18 32.698,2.415 46.58,8.439 15.844,6.878 17.375,25.094 15.685,36.408 8.766,6.265 17.55,14.762 20.924,21.183 4.524,8.611 0.873,21.901 -1.382,28.35 6.546,6.001 11.533,12.669 14.629,16.81 l 1.085,1.449 c 5.293,6.996 6.249,20.037 1.592,29.249 l 53.899,1.012 0.987,0.424 c 1.097,0.469 26.877,11.776 26.567,34.975 -0.186,13.769 10.174,24.169 13.852,27.425 l 103.952,1.403 1.543,7.386 98.759,0.779 0.272,5.166 c 1.979,37.56 3.188,83.84 -2.302,91.013"
           style="fill:#231f20;fill-opacity:1;fill-rule:nonzero;stroke:none"
           id="path3642"
           inkscape:connector-curvature="0" /></g></g></g></svg>