<?xml version="1.0" encoding="UTF-8" standalone="no"?>
<svg
   width="140mm"
   height="100mm"
   viewBox="0 0 61.157293 43.68378"
   preserveAspectRatio="xMidYMid"
   version="1.1"
   id="svg12"
   xmlns="http://www.w3.org/2000/svg"
   xmlns:svg="http://www.w3.org/2000/svg">
  <defs
     id="defs16" />
  <g
     id="g964">
    <path
       d="m 35.962565,42.686621 h 0.506919 l 8.274427,-4.137719 0.137712,-0.194646 V 5.3270682 L 44.743911,5.1314101 36.469484,0.99715929 h -0.513132 l 0.0062,41.68946171"
       fill="#5294cf"
       id="path2"
       style="stroke-width:0.144504" />
    <path
       d="M 25.194583,42.686621 H 24.680584 L 16.413238,38.548902 16.245469,38.260328 16.160356,5.4952705 16.413238,5.1314101 24.680584,0.99715929 h 0.520357 l -0.0064,41.68946171"
       fill="#1f5b98"
       id="path4"
       style="stroke-width:0.144504" />
    <path
       d="M 24.695178,0.99715929 H 36.461537 V 42.686621 H 24.695178 Z"
       fill="#2d72b8"
       id="path6"
       style="stroke-width:0.144504" />
    <path
       d="m 49.07512,20.90529 -0.279614,-0.06199 -3.992349,-0.372241 -0.05925,0.02948 -8.281796,-0.331203 H 24.695178 l -8.28194,0.331203 v -6.31539 l -0.0087,0.0046 0.0087,-0.0185 8.28194,-1.91901 h 11.766937 l 8.281796,1.91901 3.044548,1.618297 v -1.040427 l 1.286661,-0.140747 -0.133232,-0.259817 -4.073849,-2.91305 -0.124128,0.04032 -8.281796,-2.5662411 H 24.695178 l -8.28194,2.5662411 V 5.1314101 l -4.331065,5.0739589 v 4.43135 l 0.03353,-0.02428 1.253136,0.136701 v 1.061813 l -1.286661,0.68856 v 4.409242 l 0.03353,-0.0035 1.253136,0.0185 v 1.850659 l -1.081177,0.01618 -0.205484,-0.01965 v 4.410975 l 1.286661,0.691884 v 1.074096 l -1.232761,0.136122 -0.0539,-0.04046 v 4.430628 l 4.331065,5.074681 v -6.343857 l 8.28194,2.566242 h 11.766937 l 8.306217,-2.573756 0.110401,0.04841 4.020237,-2.870133 0.17615,-0.285972 -1.286661,-0.141903 v -1.052565 l -0.168636,-0.06734 -2.751784,1.483331 -0.09971,0.208085 -8.306217,1.907882 v 0.0023 H 24.695178 v -0.0023 l -8.28194,-1.915974 v -6.33851 l 8.28194,0.330046 v 0.0081 h 11.766937 l 8.281796,-0.338138 0.188577,0.0867 3.869665,-0.333226 0.272967,-0.133377 -1.286661,-0.0185 v -1.850659 l 1.286661,-0.0185"
       fill="#1a476f"
       id="path8"
       style="stroke-width:0.144504" />
    <path
       d="m 44.743911,32.205045 v 6.343857 l 4.331209,-5.074681 v -4.401727 l -4.30621,3.125037 -0.025,0.0075 m 0,-2.679821 0.025,-0.0058 4.30621,-2.316105 v -4.428894 l -4.331209,0.398397 v 6.352382 m 0.025,-15.348171 -0.025,-0.0058 v 6.329262 l 4.331209,0.404755 v -4.426727 l -4.30621,-2.30151 m 0,-2.676353 4.30621,3.107696 V 10.206525 L 44.743911,5.1314101 v 6.3444349 l 0.025,0.0087 v 0.01619"
       fill="#2d72b8"
       id="path10"
       style="stroke-width:0.144504" />
  </g>
</svg>
