<svg height="73" viewBox="0 0 73 73" width="73" xmlns="http://www.w3.org/2000/svg"><g fill="none" fill-rule="evenodd"><rect fill="#fff" fill-rule="nonzero" height="71" rx="14" stroke="#5c0510" stroke-width="2" width="71" x="1" y="1"/><g transform="translate(15 12)"><path d="m21.580078 35.9667967h-1.4386719v5.7546874h1.4386719 1.4386719v-5.7546874z" fill="#fdbf00" fill-rule="nonzero"/><path d="m21.580078 35.9667967h1.4386719v5.7546874h-1.4386719z" fill="#ff9100" fill-rule="nonzero"/><g transform="translate(10.933906 8.056562)"><path d="m7.13255147 14.159984c-1.469939.163529-2.94074121-.2905158-4.42756063-1.4308071-1.45027715 2.2765543-2.26514089 5.9917805-2.62835759 8.4864376 2.49465702-.3632167 6.20969143-1.1778887 8.48624579-2.6281658-1.138469-1.4844216-1.59395252-2.9553198-1.43032757-4.4274647z"/><path d="m2.70470311 8.5625913c1.48432572-1.13856491 2.95512792-1.59376069 4.42784836-1.43003983-.16372086-1.47224088.29185857-2.94333082 1.43042348-4.42775245-2.27655436-1.45018124-5.99158877-2.26494907-8.48624578-2.62806985.36312078 2.49465701 1.17769679 6.20930777 2.62797394 8.48586213z"/><path d="m8.43512498 10.6507756c-1.22181606-.85965443-2.33908864-.93005344-3.68750782-.0067138 1.407117.9583472 2.52860967.8280036 3.68750782.0067138z"/></g><g fill-rule="nonzero"><path d="m35.2221401 6.60887491-1.5482987-1.54829866c-.3508441.0284857-7.9799292.6713802-12.0938593 3.64290899-4.1137383-2.97143288-11.74282343-3.61442329-12.09376346-3.64281308l-1.54829866 1.54829866c.0284857.35084411.6713802 7.97992918 3.64290902 12.09385938-2.9714329 4.1138342-3.61442332 11.7429193-3.64290902 12.0938593l1.54829866 1.5482987c.35084412-.0284857 7.97992916-.6713802 12.09385936-3.642909 4.1138342 2.9714329 11.7429193 3.6144233 12.0938594 3.642909l1.5482986-1.5482987c-.0284857-.3508441-.6713802-7.9799292-3.642909-12.0938593 2.9714329-4.1139302 3.6144233-11.74301527 3.6428131-12.09395529zm-3.0726195 1.52441671c-.3632166 2.49465698-1.1776967 6.20949958-2.6279739 8.48605398-1.4843257-1.1385649-2.9549361-1.5939525-4.4277524-1.4302317.1637208-1.4722409-.2920504-2.9432349-1.4306153-4.4277524 2.2766502-1.45018127 5.9916846-2.2649491 8.4863416-2.62806988zm-4.6702166 10.56800398c-1.4069251.9592105-2.5287056.8285791-3.6885628.0059465 1.2195142-.8584075 2.3371704-.9317798 3.6885628-.0059465zm-16.4686686 10.5708813c.3632166-2.494657 1.1780804-6.2098832 2.6283575-8.4864376 1.4868195 1.1402913 2.9576217 1.5942403 4.4275607 1.4308071-.1637209 1.4722409.2918585 2.9430431 1.4304234 4.4275607-2.2766502 1.4501812-5.9916846 2.264949-8.4863416 2.6280698zm4.6708879-10.5715527c1.3484192-.9234355 2.4656918-.8529406 3.6875079.0067138-1.1588982.8212898-2.2803909.9516335-3.6875079-.0067138zm2.3849344-3.5115103c-1.4727205-.1637208-2.9435227.2915709-4.4278484 1.4300399-1.4502772-2.2765544-2.2647573-5.9912052-2.6279739-8.48595809 2.494657.36321669 6.2096914 1.17788861 8.4862457 2.62816579-1.1385649 1.4844216-1.5940484 2.9555115-1.4304234 4.4277524zm3.5136203 9.4084345c-.9572923-1.4079802-.8248385-2.5294729 0-3.6900975.8248385 1.1607205.9572923 2.2822132 0 3.6900975zm0-8.0995308c-.8248385-1.1606246-.9572923-2.2822132 0-3.6900974.9572923 1.4078842.8248385 2.5293769 0 3.6900974zm10.5694426 12.7741593c-2.494657-.3632167-6.2096914-1.1778886-8.4862457-2.6281658 1.1385649-1.4843257 1.5942402-2.9551279 1.4306153-4.4273688 1.469939.1635291 2.9405494-.2905158 4.4273688-1.430903 1.4501812 2.2765544 2.2651409 5.9917806 2.6282616 8.4864376z" fill="#76e2f8"/><path d="m35.2221401 30.7965936c-.0284857-.3508441-.6713802-7.9799292-3.642909-12.0938593 2.9714329-4.1138343 3.6144233-11.74291937 3.642909-12.09385939l-1.5482987-1.54829866c-.3508441.0284857-7.9799292.6713802-12.0938593 3.64290899v4.10443496c.9572922 1.4079802.8248385 2.5294728 0 3.6900974v4.4094333c.8248385 1.1606246.9572922 2.2822132 0 3.6900975v4.1044349c4.1138342 2.9714329 11.7429193 3.6144233 12.0938593 3.642909zm-3.0726195-22.66330198c-.3632166 2.49465698-1.1776967 6.20949958-2.6279739 8.48605398-1.4843257-1.1385649-2.9549361-1.5939525-4.4277524-1.4302317.1637208-1.4722409-.2920504-2.9432349-1.4306153-4.4277524 2.2766502-1.45018127 5.9916846-2.2649491 8.4863416-2.62806988zm-4.6702166 10.56800398c-1.4069251.9592105-2.5287056.8285791-3.6885628.0059465 1.2195142-.8584075 2.3371704-.9317798 3.6885628-.0059465zm-3.8160291 7.9427155c1.1385649-1.4843257 1.5942402-2.9551279 1.4306153-4.4273688 1.469939.1635291 2.9405494-.2905158 4.4273688-1.430903 1.4502771 2.2765544 2.2651409 5.9917806 2.6283576 8.4864376-2.494753-.3631208-6.2097874-1.1778886-8.4863417-2.6281658z" fill="#4bb9ec"/><path d="m21.580078 0c-10.3291844 0-18.70273427 8.37354982-18.70273427 18.7027343 0 10.3291844 8.37354987 18.7027342 18.70273427 18.7027342s18.7027343-8.3735498 18.7027343-18.7027342c0-10.32918448-8.3735499-18.7027343-18.7027343-18.7027343zm0 34.5281248c-8.7261203 0-15.82539053-7.0992702-15.82539053-15.8253905 0-8.72612037 7.09927023-15.82539057 15.82539053-15.82539057s15.8253905 7.0992702 15.8253905 15.82539057c0 8.7261203-7.0992702 15.8253905-15.8253905 15.8253905z" fill="#ff637b"/><path d="m40.2828123 18.7027343c0-10.32918448-8.3735499-18.7027343-18.7027343-18.7027343v2.87734373c8.7261203 0 15.8253905 7.0992702 15.8253905 15.82539057 0 8.7261203-7.0992702 15.8253905-15.8253905 15.8253905v2.8773437c10.3291844 0 18.7027343-8.3735498 18.7027343-18.7027342z" fill="#e63950"/><path d="m38.8441404 20.1414061h-1.4386719v11.509375l1.4386719 2.8773437 1.4386719-2.8773437v-11.509375z" fill="#fff7cc"/><path d="m40.2828123 20.1414061h-1.4386719v14.3867187l1.4386719-2.8773437z" fill="#ffe6b3"/><path d="m40.2828123 31.6507811h-1.4386719-1.4386719c-1.1891102 1.1543903-2.8773437 3.8597648-2.8773437 8.3847714v.4945195c0 2.9644313 1.2026338 5.4632126 3.2988746 7.5593575l1.017141 1.0172369 1.017141-1.017141c2.0962408-2.0962408 3.2988746-4.5950221 3.2988746-7.5594534v-.4945195c0-4.5518618-1.6863153-7.2397805-2.8773437-8.3847714z" fill="#54e360"/><path d="m43.160156 40.530072v-.4945195c0-4.5518618-1.6863153-7.2396845-2.8773437-8.3847714h-1.4386719v17.4558853l1.017141-1.017141c2.0962408-2.0962408 3.2988746-4.5950221 3.2988746-7.5594534z" fill="#00cc71"/><circle cx="38.84414" cy="18.702734" fill="#ffda2d" r="4.316016"/><path d="m43.160156 18.7027343c0-2.3799469-1.9360687-4.3160156-4.3160156-4.3160156v8.6320312c2.3799469 0 4.3160156-1.9360687 4.3160156-4.3160156z" fill="#fdbf00"/><path d="m4.3160156 20.1414061h-1.43867187v11.509375l1.43867187 2.8773437 1.43867187-2.8773437v-11.509375z" fill="#fff7cc"/><path d="m5.75468747 20.1414061h-1.43867187v14.3867187l1.43867187-2.8773437z" fill="#ffe6b3"/><path d="m5.75468747 31.6507811h-1.43867187-1.43867187c-1.18911025 1.1543903-2.87734373 3.8597648-2.87734373 8.3847714v.4945195c0 2.9644313 1.20263377 5.4632126 3.29887459 7.5593575l1.01714101 1.0172369 1.01714101-1.017141c2.09624082-2.0962408 3.29887459-4.5950221 3.29887459-7.5594534v-.4945195c0-4.5518618-1.68631525-7.2397805-2.87734373-8.3847714z" fill="#54e360"/><path d="m8.6320312 40.530072v-.4945195c0-4.5518618-1.68631525-7.2396845-2.87734373-8.3847714h-1.43867187v17.4558853l1.01714101-1.017141c2.09624082-2.0962408 3.29887459-4.5950221 3.29887459-7.5594534z" fill="#00cc71"/><circle cx="4.316016" cy="18.702734" fill="#ffda2d" r="4.316016"/><path d="m8.6320312 18.7027343c0-2.3799469-1.93606869-4.3160156-4.3160156-4.3160156v8.6320312c2.37994691 0 4.3160156-1.9360687 4.3160156-4.3160156z" fill="#fdbf00"/><path d="m21.580078 40.2828123c-2.3799469 0-4.3160156 2.1278916-4.3160156 4.5078385v4.3160156h4.3160156 4.3160156v-4.3160156c0-2.3799469-1.9360687-4.5078385-4.3160156-4.5078385z" fill="#ffda2d"/><path d="m25.8960936 44.7906508c0-2.3799469-1.9360687-4.5078385-4.3160156-4.5078385v8.8238541h4.3160156z" fill="#fdbf00"/></g></g></g></svg>